<svg width="800" height="800" viewBox="0 0 800 800" fill="none" xmlns="http://www.w3.org/2000/svg">
<path d="M400.022 570.145V100.765L325.535 282.043L98.7632 317.651L256.014 466.557L214.632 675.351L400.022 570.145Z" fill="black" stroke="black"/>
<path d="M374.833 139.133C382.55 116.936 386.407 105.838 392.113 102.762C397.05 100.099 402.993 100.099 407.933 102.762C413.637 105.838 417.493 116.936 425.21 139.133L476.22 285.88C478.417 292.197 479.513 295.356 481.493 297.708C483.24 299.786 485.47 301.406 487.987 302.426C490.833 303.581 494.177 303.649 500.863 303.785L656.19 306.951C679.687 307.429 691.433 307.669 696.123 312.144C700.18 316.017 702.017 321.671 701.01 327.19C699.85 333.567 690.487 340.663 671.76 354.863L547.957 448.72C542.627 452.763 539.964 454.783 538.337 457.39C536.9 459.697 536.05 462.317 535.857 465.023C535.64 468.09 536.607 471.29 538.543 477.693L583.533 626.397C590.337 648.89 593.74 660.137 590.933 665.977C588.503 671.033 583.693 674.527 578.133 675.277C571.71 676.14 562.067 669.43 542.777 656.007L415.253 567.27C409.763 563.45 407.02 561.54 404.037 560.797C401.4 560.143 398.643 560.143 396.01 560.797C393.027 561.54 390.28 563.45 384.79 567.27L257.269 656.007C237.979 669.43 228.335 676.14 221.911 675.277C216.352 674.527 211.542 671.033 209.112 665.977C206.305 660.137 209.708 648.89 216.513 626.397L261.501 477.693C263.438 471.29 264.406 468.09 264.188 465.023C263.996 462.317 263.144 459.697 261.708 457.39C260.082 454.783 257.417 452.763 252.088 448.72L128.286 354.863C109.559 340.663 100.196 333.567 99.0338 327.19C98.0275 321.671 99.8648 316.017 103.923 312.144C108.611 307.669 120.358 307.43 143.853 306.951L299.18 303.785C305.867 303.649 309.21 303.581 312.059 302.426C314.575 301.406 316.805 299.786 318.553 297.708C320.531 295.356 321.629 292.197 323.825 285.88L374.833 139.133Z" stroke="black" stroke-width="66.6667" stroke-linecap="round" stroke-linejoin="round"/>
</svg>
